# xmcd
# 
# Track frame offsets:
#     150
#     21125
#     35302
#     51157
#     68707
#     84120
#     95467
#     114542
#     133355
#     156570
#     180532
#     197895
#     208252
#     223840
# 
# Disc length: 3373
# 
# Revision: 2
# Processed by: cddbd v1.5.2PL0 Copyright (c) Steve Scherf et al.
# Submitted via: BonkEnc v1.0
# 
DISCID=cd0d2b0e
DTITLE=沖縄島唄 - 沖縄島唄
DYEAR=0
DGENRE=Country
TTITLE0=嘉手刈林昌ほか/海のチンボーラ〜赤山
TTITLE1=嘉手刈林昌ほか/国頭ジントーヨー
TTITLE2=大城美佐子/汗水節
TTITLE3=嘉手刈林昌/時代の流れ
TTITLE4=嘉手刈林昌/白保節
TTITLE5=大工哲広/安里屋ユンタ
TTITLE6=大工哲広/トバルマ
TTITLE7=国吉源次/伊良部トーガニー
TTITLE8=国吉源次/なりやまあやぐ
TTITLE9=糸数カメ/ナークニー（宮古音）
TTITLE10=糸数カメほか/軍人節
TTITLE11=登川誠仁/ヒヤミカチ節
TTITLE12=知名定男/前田節
TTITLE13=嘉手刈林昌ほか/嘉手久〜唐船ドーイ
EXTD=
EXTT0=
EXTT1=
EXTT2=
EXTT3=
EXTT4=
EXTT5=
EXTT6=
EXTT7=
EXTT8=
EXTT9=
EXTT10=
EXTT11=
EXTT12=
EXTT13=
PLAYORDER=
